<?xml version="1.0" encoding="utf-8"?>
<!-- Generator: Adobe Illustrator 16.0.0, SVG Export Plug-In . SVG Version: 6.00 Build 0)  -->
<!DOCTYPE svg PUBLIC "-//W3C//DTD SVG 1.1//EN" "http://www.w3.org/Graphics/SVG/1.1/DTD/svg11.dtd">
<svg version="1.1" id="Livello_1" xmlns="http://www.w3.org/2000/svg" xmlns:xlink="http://www.w3.org/1999/xlink" x="0px" y="0px"
	 width="566.93px" height="566.93px" viewBox="0 0 566.93 566.93" enable-background="new 0 0 566.93 566.93" xml:space="preserve">
<g>
	<g>
		<linearGradient id="SVGID_1_" gradientUnits="userSpaceOnUse" x1="72.7778" y1="224.0073" x2="486.0088" y2="224.0073">
			<stop  offset="0" style="stop-color:#1178BD"/>
			<stop  offset="1" style="stop-color:#53B36F"/>
		</linearGradient>
		<path fill="url(#SVGID_1_)" d="M483.506,174.444c-2.248-2.988-5.723-4.752-9.41-4.752h-302.89l-13.233-52.123
			c-1.359-5.357-6.096-9.109-11.509-9.109h-61.78c-6.581,0-11.906,5.453-11.906,12.193c0,6.723,5.325,12.191,11.906,12.191h52.576
			l13.233,52.139l31.198,122.912c3.391-0.184,6.075-0.186,6.918-0.186c9.209,0,19.004,1.828,27.777,4.56
			c3.208,0.999,7.306,2.306,10.731,4.313h32.796v3.423c4.208-0.292,7.71-0.296,8.696-0.296c4.954,0,10.073,0.541,15.116,1.455
			v-4.582h68.64v15.338c4.797,0.801,9.543,1.954,14.021,3.349c2.924,0.91,6.586,2.079,9.807,3.8v-22.486H427.6l-5.832,22.972
			c0.965-0.431,1.924-0.878,2.869-1.366c0.102-0.053,3.613-1.986,2.846-1.51c1.227-0.715,2.452-1.433,3.666-2.17
			c0.143-1.758,1.633-3.561,5.176-5.297c4.279-2.096,8.914-3.157,13.614-3.775l35.683-140.453
			C486.559,181.327,485.771,177.433,483.506,174.444z M259.913,292.198h-57.607l-9.355-36.863h66.962V292.198z M259.913,230.938
			h-73.169l-9.354-36.83h82.524V230.938z M352.365,292.198h-68.64v-36.863h68.64V292.198z M352.365,230.938h-68.64v-36.83h68.64
			V230.938z M433.791,292.198h-57.598v-36.863h66.961L433.791,292.198z M449.322,230.938h-73.129v-36.83h82.5L449.322,230.938z"/>
	</g>
	<g>
		<linearGradient id="SVGID_2_" gradientUnits="userSpaceOnUse" x1="51.5137" y1="371.6133" x2="515.417" y2="371.6133">
			<stop  offset="0" style="stop-color:#1178BD"/>
			<stop  offset="1" style="stop-color:#53B36F"/>
		</linearGradient>
		<path fill="url(#SVGID_2_)" d="M456.689,319.063l-67.66,31.888c-9.348-17.326-27.262-28.359-46.98-28.915l-62.457-1.7
			c-9.887-0.287-19.6-2.783-28.39-7.313l-6.358-3.291c-32.539-16.913-71.326-16.881-103.833,0.111l0.397-14.354
			c0.127-4.754-3.625-8.711-8.394-8.854l-68.496-1.876c-4.769-0.127-8.743,3.625-8.87,8.377l-4.133,149.867
			c-0.127,4.754,3.625,8.729,8.393,8.855l68.496,1.875h0.23c4.681,0,8.512-3.703,8.639-8.377l0.191-7.17l17.795-9.506
			c6.986-3.734,15.149-4.641,22.779-2.479l106.256,29.74c0.184,0.049,0.367,0.096,0.564,0.128c7.67,1.605,15.5,2.416,23.344,2.399
			c16.619,0.017,33.031-3.561,48.148-10.475c0.359-0.158,0.725-0.365,1.066-0.588l154.047-99.35c3.84-2.496,5.08-7.52,2.83-11.478
			C502.867,316.345,477.506,308.635,456.689,319.063z M69.018,434.881l3.664-132.668l51.225,1.415l-3.672,132.652L69.018,434.881z
			 M348.564,432.624c-18.756,8.44-39.715,10.762-59.879,6.66l-105.971-29.662c-11.93-3.354-24.694-1.971-35.599,3.879l-9.092,4.863
			l2.432-88.207c28.812-19.105,65.762-21.061,96.457-5.117l6.343,3.273c11.111,5.723,23.367,8.887,35.861,9.236l62.455,1.717
			c17.551,0.492,32.453,12.955,36.014,30.107l-93.04-2.576c-4.777-0.127-8.735,3.625-8.87,8.377
			c-0.136,4.754,3.624,8.728,8.392,8.839l102.674,2.829h0.238c4.682,0,8.504-3.719,8.631-8.377
			c0.111-3.752-0.174-7.486-0.834-11.175l69.393-32.698c0.064-0.031,0.137-0.063,0.207-0.096c9.848-4.959,21.738-3.307,29.846,4.166
			L348.564,432.624z"/>
	</g>
</g>
</svg>
