<svg xmlns="http://www.w3.org/2000/svg" width="150.124" height="178.625" viewBox="0 0 150.124 178.625">
  <g id="Group_91" data-name="Group 91" transform="translate(918.208 -455)">
    <g id="save-time" transform="translate(-625 500.139)">
      <path id="Path_11" data-name="Path 11" d="M170.141,75.2a37.465,37.465,0,1,0-37.465-37.465A37.463,37.463,0,0,0,170.141,75.2Zm-5.217-57.611a2.8,2.8,0,0,1,5.6,0V38.633h15.286a2.8,2.8,0,0,1,0,5.6H167.9a3.266,3.266,0,0,1-2.979-3.142Zm0,0" transform="translate(-384.589)" fill="#f5f5f5"/>
    </g>
    <g id="save-money" transform="translate(-918.567 455)">
      <path id="Path_4" data-name="Path 4" d="M178.937,358.952l-.062.031-24.606,11.625a19.015,19.015,0,0,1,.343,4.136,2.649,2.649,0,0,1-2.648,2.578h-.075l-36.012-.991a2.652,2.652,0,0,1,.145-5.3l33.1.911a13.666,13.666,0,0,0-13.073-11.356l-21.907-.6a28.843,28.843,0,0,1-12.413-3.207L99.5,355.622a33.675,33.675,0,0,0-34.376,1.936l-.877,31.869,3.764-2.016a16.372,16.372,0,0,1,12.206-1.336L117.4,396.511a34.724,34.724,0,0,0,21.276-2.378l51.506-33.317a9.633,9.633,0,0,0-11.243-1.864Zm0,0" transform="translate(-39.697 -218.592)" fill="#f5f5f5"/>
      <path id="Path_5" data-name="Path 5" d="M.359,387.966l1.306-47.415,18.723.516-1.306,47.415Zm0,0" transform="translate(0 -211.596)" fill="#f5f5f5"/>
      <path id="Path_6" data-name="Path 6" d="M202.887,31.429V2.651a2.651,2.651,0,1,0-5.3,0V31.429a2.651,2.651,0,1,0,5.3,0Zm0,0" transform="translate(-122.543)" fill="#f5f5f5"/>
      <path id="Path_7" data-name="Path 7" d="M262.887,56.283V42.651a2.651,2.651,0,1,0-5.3,0V56.283a2.651,2.651,0,1,0,5.3,0Zm0,0" transform="translate(-159.823 -24.853)" fill="#f5f5f5"/>
      <path id="Path_8" data-name="Path 8" d="M142.887,56.283V42.651a2.651,2.651,0,1,0-5.3,0V56.283a2.651,2.651,0,0,0,5.3,0Zm0,0" transform="translate(-85.263 -24.853)" fill="#f5f5f5"/>
    </g>
  </g>
</svg>
