<svg xmlns="http://www.w3.org/2000/svg" width="150.124" height="178.625" viewBox="0 0 150.124 178.625">
  <g id="save-money" transform="translate(-0.359)">
    <path id="Path_3" data-name="Path 3" d="M104.008,158.74a38.248,38.248,0,1,0,38.248-38.248A38.248,38.248,0,0,0,104.008,158.74Zm38.248,2.417a12.569,12.569,0,0,1-3.192-24.744V133.18a2.651,2.651,0,0,1,5.3,0v3.072A12.443,12.443,0,0,1,154.732,148.6a2.62,2.62,0,1,1-5.239,0,7.249,7.249,0,1,0-7.239,7.255,12.549,12.549,0,0,1,2.112,24.906v3.16a2.651,2.651,0,0,1-5.3,0V180.6a12.687,12.687,0,0,1-9.447-12.185,2.682,2.682,0,1,1,5.363,0,7.272,7.272,0,0,0,6.479,7.211,2.759,2.759,0,0,1,.414-.034,2.673,2.673,0,0,1,.593.068,7.252,7.252,0,0,0-.21-14.5Zm0,0" transform="translate(-64.4 -74.866)" fill="#f5f5f5"/>
    <path id="Path_4" data-name="Path 4" d="M178.937,358.952l-.062.031-24.606,11.625a19.015,19.015,0,0,1,.343,4.136,2.649,2.649,0,0,1-2.648,2.578h-.075l-36.012-.991a2.652,2.652,0,0,1,.145-5.3l33.1.911a13.666,13.666,0,0,0-13.073-11.356l-21.907-.6a28.843,28.843,0,0,1-12.413-3.207L99.5,355.622a33.675,33.675,0,0,0-34.376,1.936l-.877,31.869,3.764-2.016a16.372,16.372,0,0,1,12.206-1.336L117.4,396.511a34.724,34.724,0,0,0,21.276-2.378l51.506-33.317a9.633,9.633,0,0,0-11.243-1.864Zm0,0" transform="translate(-39.697 -218.592)" fill="#f5f5f5"/>
    <path id="Path_5" data-name="Path 5" d="M.359,387.966l1.306-47.415,18.723.516-1.306,47.415Zm0,0" transform="translate(0 -211.596)" fill="#f5f5f5"/>
    <path id="Path_6" data-name="Path 6" d="M202.887,31.429V2.651a2.651,2.651,0,1,0-5.3,0V31.429a2.651,2.651,0,1,0,5.3,0Zm0,0" transform="translate(-122.543)" fill="#f5f5f5"/>
    <path id="Path_7" data-name="Path 7" d="M262.887,56.283V42.651a2.651,2.651,0,1,0-5.3,0V56.283a2.651,2.651,0,1,0,5.3,0Zm0,0" transform="translate(-159.823 -24.853)" fill="#f5f5f5"/>
    <path id="Path_8" data-name="Path 8" d="M142.887,56.283V42.651a2.651,2.651,0,1,0-5.3,0V56.283a2.651,2.651,0,0,0,5.3,0Zm0,0" transform="translate(-85.263 -24.853)" fill="#f5f5f5"/>
  </g>
</svg>
