<svg xmlns="http://www.w3.org/2000/svg" width="150.124" height="178.625" viewBox="0 0 150.124 178.625">
  <g id="save-money" transform="translate(-0.359)">
    <path id="Path_3" data-name="Path 3" d="M104.008,158.74a38.248,38.248,0,1,0,38.248-38.248A38.248,38.248,0,0,0,104.008,158.74Z" transform="translate(-64.4 -74.866)" fill="#fafafa"/>
    <path id="Path_4" data-name="Path 4" d="M178.937,358.952l-.062.031-24.606,11.625a19.015,19.015,0,0,1,.343,4.136,2.649,2.649,0,0,1-2.648,2.578h-.075l-36.012-.991a2.652,2.652,0,0,1,.145-5.3l33.1.911a13.666,13.666,0,0,0-13.073-11.356l-21.907-.6a28.843,28.843,0,0,1-12.413-3.207L99.5,355.622a33.675,33.675,0,0,0-34.376,1.936l-.877,31.869,3.764-2.016a16.372,16.372,0,0,1,12.206-1.336L117.4,396.511a34.724,34.724,0,0,0,21.276-2.378l51.506-33.317a9.633,9.633,0,0,0-11.243-1.864Zm0,0" transform="translate(-39.697 -218.592)" fill="#fafafa"/>
    <path id="Path_5" data-name="Path 5" d="M.359,387.966l1.306-47.415,18.723.516-1.306,47.415Zm0,0" transform="translate(0 -211.596)" fill="#fafafa"/>
    <path id="Path_6" data-name="Path 6" d="M202.887,31.429V2.651a2.651,2.651,0,1,0-5.3,0V31.429a2.651,2.651,0,1,0,5.3,0Zm0,0" transform="translate(-122.543)" fill="#fafafa"/>
    <path id="Path_7" data-name="Path 7" d="M262.887,56.283V42.651a2.651,2.651,0,1,0-5.3,0V56.283a2.651,2.651,0,1,0,5.3,0Zm0,0" transform="translate(-159.823 -24.853)" fill="#fafafa"/>
    <path id="Path_8" data-name="Path 8" d="M142.887,56.283V42.651a2.651,2.651,0,1,0-5.3,0V56.283a2.651,2.651,0,0,0,5.3,0Zm0,0" transform="translate(-85.263 -24.853)" fill="#fafafa"/>
    <path id="apple" d="M27.947,9.816c-3.205-.807-6.6-.034-8.448,1.925a1.842,1.842,0,0,1-.264.177,8.148,8.148,0,0,1,8.072-7.253,1.166,1.166,0,1,0,0-2.333,10.45,10.45,0,0,0-8.332,4.184,8.179,8.179,0,0,0-8-6.517H6.312A1.166,1.166,0,0,0,5.146,1.166,8.174,8.174,0,0,0,13.31,9.33h4.144a10.4,10.4,0,0,0-.564,2.7,8.954,8.954,0,0,0-8.7-2.4A9.422,9.422,0,0,0,1.257,16.23a22.347,22.347,0,0,0-.409,9.74c1.346,7.638,6,13.841,10.827,13.841a5.685,5.685,0,0,0,2.734-.7,7.547,7.547,0,0,1,7.134,0,5.665,5.665,0,0,0,2.733.7c4.827,0,9.481-6.2,10.827-13.842a22.563,22.563,0,0,0-.323-9.446,9.233,9.233,0,0,0-6.833-6.708Zm0,0" transform="translate(60.067 63.937)" fill="#0aa7a3"/>
  </g>
</svg>
