<?xml version="1.0" encoding="utf-8"?>
<!-- Generator: Adobe Illustrator 16.0.0, SVG Export Plug-In . SVG Version: 6.00 Build 0)  -->
<!DOCTYPE svg PUBLIC "-//W3C//DTD SVG 1.1//EN" "http://www.w3.org/Graphics/SVG/1.1/DTD/svg11.dtd">
<svg version="1.1" id="Livello_1" xmlns="http://www.w3.org/2000/svg" xmlns:xlink="http://www.w3.org/1999/xlink" x="0px" y="0px"
	 width="566.93px" height="566.93px" viewBox="0 0 566.93 566.93" enable-background="new 0 0 566.93 566.93" xml:space="preserve">
<g>
	<linearGradient id="SVGID_1_" gradientUnits="userSpaceOnUse" x1="51.6484" y1="282.4375" x2="526.6865" y2="282.4375">
		<stop  offset="0" style="stop-color:#1178BD"/>
		<stop  offset="1" style="stop-color:#53B36F"/>
	</linearGradient>
	<linearGradient id="SVGID_2_" gradientUnits="userSpaceOnUse" x1="50.6484" y1="282.4375" x2="527.6865" y2="282.4375">
		<stop  offset="0" style="stop-color:#1178BD"/>
		<stop  offset="1" style="stop-color:#53B36F"/>
	</linearGradient>
	<path fill="url(#SVGID_1_)" stroke="url(#SVGID_2_)" stroke-width="2" stroke-miterlimit="10" d="M526.687,282.442
		c0,130.87-106.342,236.962-237.521,236.962c-131.175,0-237.517-106.092-237.517-236.962c0-130.88,106.342-236.972,237.517-236.972
		C420.345,45.47,526.687,151.562,526.687,282.442z"/>
	<g>
		<path fill="#FFFFFF" d="M430.161,187.794c-1.559-2.072-3.969-3.294-6.522-3.294H213.667l-9.18-36.132
			c-0.939-3.716-4.218-6.317-7.978-6.317h-42.826c-4.558,0-8.25,3.779-8.25,8.451c0,4.661,3.692,8.454,8.25,8.454h36.444
			l9.182,36.145l22.792,89.817c8.052,0.58,16.057,0.965,24.03,1.414h29.024v2.541c0.495,0.066,0.989,0.117,1.484,0.188
			c10.755-5.891,25.552-5.197,40.453-2.729h11.977c4.662-1.41,15.39,1.727,17.817,2.414c2.119,0.6,3.299,1.174,4.938,2
			c0.824,0.268,3.142,3.246,4,3.438l-0.063-7.852h35.643l-0.037,0.139c4.141-0.5,8.126-0.787,11.79-0.537
			c0.378,0.027,2.521,0.359,5.155,0.92l23.312-91.753C432.276,192.565,431.731,189.866,430.161,187.794z M275.156,269.427H235.22
			l-6.478-25.553h46.414V269.427z M275.156,226.958h-50.725l-6.478-25.53h57.202V226.958z M339.243,269.427h-47.579v-25.553h47.579
			V269.427z M339.243,226.958h-47.579v-25.53h47.579V226.958z M395.704,269.427h-39.941v-25.553h46.433L395.704,269.427z
			 M406.468,226.958h-50.705v-25.53h57.195L406.468,226.958z"/>
	</g>
	<g>
		<linearGradient id="SVGID_3_" gradientUnits="userSpaceOnUse" x1="130.687" y1="324.4824" x2="452.2832" y2="324.4824">
			<stop  offset="0" style="stop-color:#1178BD"/>
			<stop  offset="1" style="stop-color:#53B36F"/>
		</linearGradient>
		<path fill="url(#SVGID_3_)" stroke="#FFFFFF" stroke-width="12" stroke-miterlimit="10" d="M411.573,288.053l-46.903,22.105
			c-6.479-12.012-18.895-19.66-32.574-20.045l-43.3-1.18c-6.854-0.199-13.582-1.93-19.678-5.07l-4.405-2.281
			c-22.56-11.724-49.451-11.701-71.983,0.077l0.274-9.949c0.09-3.298-2.509-6.04-5.817-6.139l-47.484-1.3
			c-3.306-0.088-6.06,2.514-6.151,5.808l-2.861,103.894c-0.09,3.293,2.51,6.049,5.817,6.137l47.484,1.301h0.168
			c3.239,0,5.893-2.566,5.979-5.807l0.13-4.969l12.345-6.592c4.836-2.59,10.5-3.219,15.792-1.719l73.656,20.617
			c0.134,0.035,0.255,0.068,0.396,0.09c5.312,1.111,10.744,1.674,16.177,1.664c11.525,0.01,22.896-2.469,33.378-7.264
			c0.255-0.111,0.507-0.252,0.736-0.408l106.795-68.871c2.668-1.73,3.523-5.213,1.959-7.957
			C443.582,286.166,426.005,280.822,411.573,288.053z M142.822,368.342l2.548-91.971l35.502,0.979l-2.548,91.959L142.822,368.342z
			 M336.616,366.775c-13.006,5.852-27.531,7.461-41.516,4.617l-73.461-20.561c-8.27-2.326-17.119-1.367-24.679,2.688l-6.301,3.373
			l1.687-61.146c19.974-13.248,45.585-14.605,66.864-3.551l4.397,2.27c7.7,3.969,16.194,6.16,24.86,6.404l43.292,1.189
			c12.17,0.342,22.507,8.979,24.976,20.869l-64.497-1.783c-3.318-0.088-6.065,2.512-6.146,5.805
			c-0.101,3.299,2.51,6.053,5.815,6.129l71.175,1.961h0.162c3.243,0,5.9-2.578,5.984-5.807c0.081-2.602-0.117-5.189-0.581-7.748
			l48.113-22.666c0.046-0.023,0.083-0.045,0.141-0.068c6.819-3.436,15.061-2.289,20.683,2.887L336.616,366.775z"/>
		<g>
			<linearGradient id="SVGID_4_" gradientUnits="userSpaceOnUse" x1="131.9058" y1="324.1367" x2="453.502" y2="324.1367">
				<stop  offset="0" style="stop-color:#1178BD"/>
				<stop  offset="1" style="stop-color:#53B36F"/>
			</linearGradient>
			<path fill="url(#SVGID_4_)" d="M412.792,287.707l-46.903,22.105c-6.479-12.012-18.895-19.66-32.574-20.045l-43.3-1.18
				c-6.854-0.199-13.582-1.93-19.678-5.07l-4.405-2.281c-22.56-11.724-49.451-11.701-71.983,0.077l0.274-9.949
				c0.09-3.298-2.509-6.04-5.817-6.139l-47.484-1.3c-3.306-0.088-6.06,2.514-6.151,5.808l-2.861,103.894
				c-0.09,3.293,2.51,6.049,5.817,6.137l47.484,1.301h0.168c3.239,0,5.893-2.566,5.979-5.807l0.13-4.969l12.345-6.592
				c4.836-2.59,10.5-3.219,15.792-1.719l73.656,20.617c0.134,0.035,0.255,0.068,0.396,0.09c5.312,1.111,10.744,1.674,16.177,1.664
				c11.525,0.01,22.896-2.469,33.378-7.264c0.255-0.111,0.507-0.252,0.736-0.408l106.795-68.871c2.668-1.73,3.523-5.213,1.959-7.957
				C444.801,285.82,427.224,280.477,412.792,287.707z M144.041,367.996l2.548-91.971l35.502,0.979l-2.548,91.959L144.041,367.996z
				 M337.835,366.43c-13.006,5.852-27.531,7.461-41.516,4.617l-73.461-20.561c-8.27-2.326-17.119-1.367-24.679,2.688l-6.301,3.373
				l1.687-61.146c19.974-13.248,45.585-14.605,66.864-3.551l4.397,2.27c7.7,3.969,16.194,6.16,24.86,6.404l43.292,1.189
				c12.17,0.342,22.507,8.979,24.976,20.869l-64.497-1.783c-3.318-0.088-6.065,2.512-6.146,5.805
				c-0.101,3.299,2.51,6.053,5.815,6.129l71.175,1.961h0.162c3.243,0,5.9-2.578,5.984-5.807c0.081-2.602-0.117-5.189-0.581-7.748
				l48.113-22.666c0.046-0.023,0.083-0.045,0.141-0.068c6.819-3.436,15.061-2.289,20.683,2.887L337.835,366.43z"/>
		</g>
	</g>
</g>
</svg>
