<?xml version="1.0" encoding="utf-8"?>
<!-- Generator: Adobe Illustrator 16.0.0, SVG Export Plug-In . SVG Version: 6.00 Build 0)  -->
<!DOCTYPE svg PUBLIC "-//W3C//DTD SVG 1.1//EN" "http://www.w3.org/Graphics/SVG/1.1/DTD/svg11.dtd">
<svg version="1.1" id="Livello_1" xmlns="http://www.w3.org/2000/svg" xmlns:xlink="http://www.w3.org/1999/xlink" x="0px" y="0px"
	 width="566.93px" height="566.93px" viewBox="0 0 566.93 566.93" enable-background="new 0 0 566.93 566.93" xml:space="preserve">
<g>
	<linearGradient id="SVGID_1_" gradientUnits="userSpaceOnUse" x1="40.7295" y1="283.4653" x2="526.2002" y2="283.4653">
		<stop  offset="0" style="stop-color:#1178BD"/>
		<stop  offset="1" style="stop-color:#53B36F"/>
	</linearGradient>
	<path fill="#FFFFFF" stroke="url(#SVGID_1_)" stroke-width="4" stroke-miterlimit="10" d="M524.2,283.466
		c0,132.643-107.78,240.177-240.735,240.177S42.729,416.108,42.729,283.466c0-132.654,107.78-240.178,240.735-240.178
		S524.2,150.812,524.2,283.466z"/>
	<g>
		<linearGradient id="SVGID_2_" gradientUnits="userSpaceOnUse" x1="138.291" y1="317.2939" x2="428.6328" y2="317.2939">
			<stop  offset="0" style="stop-color:#1178BD"/>
			<stop  offset="1" style="stop-color:#53B36F"/>
		</linearGradient>
		<path fill="url(#SVGID_2_)" d="M363.667,317.358c2.613-0.012,5.358-0.275-0.208-0.015
			C363.528,317.349,363.596,317.354,363.667,317.358z"/>
		<linearGradient id="SVGID_3_" gradientUnits="userSpaceOnUse" x1="138.291" y1="222.71" x2="428.6328" y2="222.71">
			<stop  offset="0" style="stop-color:#1178BD"/>
			<stop  offset="1" style="stop-color:#53B36F"/>
		</linearGradient>
		<path fill="url(#SVGID_3_)" d="M232.527,287.02c2.484,0.305,4.987,0.688,7.482,1.147h29.762v6.827
			c0.491-0.016,0.981-0.045,1.473-0.056c5.088-0.106,10.173-0.134,15.259-0.108v-6.663h48.228v9.518
			c2.204,0.515,4.393,1.105,6.561,1.78c1.237,0.386,6.008,1.891,10.182,4.022v-15.32h36.12l-2.613,10.301
			c0.077-0.026,0.155-0.048,0.232-0.074c1.057-0.366,2.119-0.746,3.158-1.18c0.548-0.384,1.712-1.139,2.211-1.571
			c3.4-2.953,8.749-3.942,13.502-4.383l24.276-95.56c0.659-2.569,0.112-5.306-1.485-7.405c-1.575-2.1-4.021-3.34-6.612-3.34H207.449
			l-9.304-36.623c-0.949-3.764-4.277-6.399-8.087-6.399h-43.402c-4.624,0-8.365,3.831-8.365,8.566c0,4.725,3.741,8.567,8.365,8.567
			h36.936l9.304,36.634l22.965,90.486C221.436,285.974,227.063,286.349,232.527,287.02z M351.473,202.11h57.967l-6.579,25.879
			h-51.388V202.11z M351.473,245.134h47.055l-6.579,25.9h-40.476V245.134z M286.503,202.11h48.228v25.879h-48.228V202.11z
			 M286.503,245.134h48.228v25.9h-48.228V245.134z M269.771,271.034h-40.476l-6.567-25.9h47.043V271.034z M269.771,202.11v25.879
			h-51.41l-6.567-25.879H269.771z"/>
	</g>
	<g>
		<g>
			<linearGradient id="SVGID_4_" gradientUnits="userSpaceOnUse" x1="123.3447" y1="326.834" x2="449.2988" y2="326.834">
				<stop  offset="0" style="stop-color:#1178BD"/>
				<stop  offset="1" style="stop-color:#53B36F"/>
			</linearGradient>
			<path fill="url(#SVGID_4_)" d="M408.032,289.91l-47.535,22.404c-6.567-12.174-19.155-19.926-33.016-20.316l-43.883-1.194
				c-6.946-0.201-13.771-1.954-19.947-5.138l-4.468-2.313c-22.863-11.883-50.115-11.86-72.956,0.078l0.28-10.085
				c0.088-3.34-2.547-6.121-5.897-6.221l-48.128-1.318c-3.35-0.089-6.143,2.547-6.231,5.886l-2.904,105.301
				c-0.089,3.34,2.546,6.132,5.897,6.221l48.127,1.318h0.167c3.284,0,5.976-2.603,6.065-5.887l0.134-5.037l12.51-6.678
				c4.903-2.625,10.644-3.262,16.005-1.743l74.652,20.897c0.135,0.033,0.258,0.066,0.403,0.089
				c5.383,1.128,10.89,1.698,16.396,1.687c11.683,0.012,23.209-2.502,33.83-7.36c0.258-0.11,0.515-0.257,0.749-0.413l108.238-69.806
				c2.702-1.754,3.574-5.283,1.987-8.064C440.478,288,422.663,282.583,408.032,289.91z M135.644,371.287l2.581-93.217l35.985,0.994
				l-2.58,93.205L135.644,371.287z M332.061,369.701c-13.179,5.931-27.9,7.561-42.073,4.68l-74.452-20.842
				c-8.388-2.355-17.356-1.385-25.019,2.726l-6.389,3.418l1.709-61.977c20.25-13.425,46.206-14.799,67.773-3.597l4.456,2.301
				c7.808,4.021,16.418,6.243,25.197,6.489l43.883,1.207c12.33,0.346,22.807,9.102,25.309,21.153l-65.371-1.81
				c-3.362-0.089-6.143,2.547-6.233,5.887c-0.1,3.339,2.547,6.131,5.897,6.209l72.141,1.988h0.168c3.283,0,5.975-2.613,6.064-5.886
				c0.078-2.636-0.123-5.261-0.592-7.852l48.764-22.975c0.045-0.022,0.089-0.045,0.146-0.067c6.913-3.484,15.267-2.323,20.964,2.927
				L332.061,369.701z"/>
		</g>
	</g>
</g>
</svg>
