<?xml version="1.0" encoding="utf-8"?>
<!-- Generator: Adobe Illustrator 16.0.0, SVG Export Plug-In . SVG Version: 6.00 Build 0)  -->
<!DOCTYPE svg PUBLIC "-//W3C//DTD SVG 1.1//EN" "http://www.w3.org/Graphics/SVG/1.1/DTD/svg11.dtd">
<svg version="1.1" id="Livello_1" xmlns="http://www.w3.org/2000/svg" xmlns:xlink="http://www.w3.org/1999/xlink" x="0px" y="0px"
	 width="566.93px" height="566.93px" viewBox="0 0 566.93 566.93" enable-background="new 0 0 566.93 566.93" xml:space="preserve">
<g>
	<g>
		<path d="M483.507,174.445c-2.249-2.988-5.723-4.753-9.41-4.753H171.206l-13.233-52.123c-1.359-5.357-6.096-9.108-11.509-9.108
			h-61.78c-6.581,0-11.906,5.452-11.906,12.192c0,6.724,5.325,12.192,11.906,12.192h52.576l13.233,52.139l31.198,122.912
			c3.391-0.184,6.075-0.186,6.918-0.186c9.209,0,19.004,1.829,27.777,4.56c3.208,0.999,7.306,2.306,10.731,4.313h32.796v3.423
			c4.208-0.292,7.71-0.296,8.696-0.296c4.954,0,10.073,0.542,15.116,1.456v-4.583h68.64v15.338
			c4.797,0.801,9.543,1.955,14.021,3.349c2.924,0.91,6.586,2.079,9.807,3.799v-22.486h51.407l-5.832,22.972
			c0.964-0.431,1.923-0.878,2.869-1.366c0.102-0.052,3.614-1.987,2.845-1.51c1.227-0.715,2.453-1.432,3.667-2.169
			c0.142-1.759,1.633-3.561,5.176-5.297c4.278-2.097,8.913-3.158,13.614-3.776l35.682-140.453
			C486.559,181.328,485.771,177.433,483.507,174.445z M259.914,292.199h-57.607l-9.355-36.863h66.962V292.199z M259.914,230.939
			h-73.169l-9.354-36.831h82.524V230.939z M352.365,292.199h-68.64v-36.863h68.64V292.199z M352.365,230.939h-68.64v-36.831h68.64
			V230.939z M433.792,292.199h-57.599v-36.863h66.961L433.792,292.199z M449.322,230.939h-73.129v-36.831h82.5L449.322,230.939z"/>
	</g>
	<g>
		<path d="M456.69,319.063l-67.661,31.887c-9.348-17.326-27.262-28.358-46.98-28.915l-62.456-1.701
			c-9.887-0.286-19.6-2.782-28.39-7.313l-6.358-3.29c-32.539-16.914-71.326-16.882-103.833,0.111l0.397-14.354
			c0.127-4.753-3.625-8.711-8.394-8.854l-68.496-1.875c-4.769-0.127-8.743,3.624-8.87,8.377l-4.133,149.867
			c-0.127,4.753,3.625,8.728,8.393,8.854l68.496,1.876h0.23c4.681,0,8.512-3.704,8.639-8.377l0.191-7.169l17.795-9.506
			c6.986-3.735,15.149-4.642,22.779-2.479l106.257,29.741c0.183,0.048,0.366,0.096,0.564,0.127c7.67,1.605,15.499,2.416,23.343,2.4
			c16.62,0.016,33.032-3.561,48.149-10.475c0.358-0.159,0.724-0.366,1.065-0.588l154.048-99.35
			c3.839-2.496,5.079-7.519,2.829-11.477C502.868,316.344,477.506,308.635,456.69,319.063z M69.019,434.881l3.664-132.668
			l51.225,1.415l-3.672,132.652L69.019,434.881z M348.565,432.624c-18.757,8.441-39.716,10.762-59.88,6.661l-105.971-29.662
			c-11.93-3.354-24.694-1.971-35.599,3.878l-9.092,4.864l2.432-88.207c28.812-19.106,65.762-21.062,96.457-5.118l6.343,3.274
			c11.111,5.723,23.367,8.886,35.861,9.235l62.455,1.717c17.55,0.493,32.452,12.956,36.013,30.107l-93.04-2.575
			c-4.777-0.127-8.735,3.624-8.87,8.377c-0.136,4.753,3.624,8.727,8.393,8.838l102.673,2.83h0.238c4.682,0,8.504-3.72,8.631-8.377
			c0.111-3.752-0.174-7.487-0.834-11.175l69.394-32.698c0.063-0.032,0.136-0.063,0.207-0.096c9.848-4.959,21.737-3.307,29.845,4.165
			L348.565,432.624z"/>
	</g>
</g>
</svg>
